<svg width="63" height="57" viewBox="0 0 63 57" fill="none" xmlns="http://www.w3.org/2000/svg">
<path fill-rule="evenodd" clip-rule="evenodd" d="M6.71382 56.4914C1.64466 56.4914 -1.51534 50.9944 1.01924 46.6164L25.8055 3.79186C28.3401 -0.586056 34.6601 -0.586056 37.1947 3.79186L61.9809 46.6164C64.5155 50.9944 61.3555 56.4914 56.2863 56.4914H6.71382ZM56.2863 49.9081L31.5001 7.08354L6.71382 49.9081H56.2863ZM28.2084 23.5748V30.1581C28.2084 31.9685 29.6896 33.4498 31.5001 33.4498C33.3105 33.4498 34.7917 31.9685 34.7917 30.1581V23.5748C34.7917 21.7644 33.3105 20.2831 31.5001 20.2831C29.6896 20.2831 28.2084 21.7644 28.2084 23.5748ZM34.7917 46.6165V40.0331H28.2084V46.6165H34.7917Z" fill="#5C5C5C"/>
</svg>
